<?xml version="1.0" encoding="UTF-8"?>
<svg xmlns="http://www.w3.org/2000/svg" xmlns:xlink="http://www.w3.org/1999/xlink" width="365pt" height="332.42pt" viewBox="0 0 365 332.42" version="1.1">
<defs>
<clipPath id="clip1">
  <path d="M 35 307 L 67 307 L 67 332.421875 L 35 332.421875 Z M 35 307 "/>
</clipPath>
<clipPath id="clip2">
  <path d="M 73 307 L 81 307 L 81 332.421875 L 73 332.421875 Z M 73 307 "/>
</clipPath>
<clipPath id="clip3">
  <path d="M 120 307 L 152 307 L 152 332.421875 L 120 332.421875 Z M 120 307 "/>
</clipPath>
<clipPath id="clip4">
  <path d="M 158 307 L 186 307 L 186 332.421875 L 158 332.421875 Z M 158 307 "/>
</clipPath>
<clipPath id="clip5">
  <path d="M 191 307 L 223 307 L 223 332.421875 L 191 332.421875 Z M 191 307 "/>
</clipPath>
<clipPath id="clip6">
  <path d="M 229 307 L 256 307 L 256 332.421875 L 229 332.421875 Z M 229 307 "/>
</clipPath>
<clipPath id="clip7">
  <path d="M 335 307 L 365 307 L 365 332.421875 L 335 332.421875 Z M 335 307 "/>
</clipPath>
<clipPath id="clip8">
  <path d="M 298 307 L 331 307 L 331 332.421875 L 298 332.421875 Z M 298 307 "/>
</clipPath>
<clipPath id="clip9">
  <path d="M 260 307 L 293 307 L 293 332.421875 L 260 332.421875 Z M 260 307 "/>
</clipPath>
<clipPath id="clip10">
  <path d="M 88 307 L 117 307 L 117 332.421875 L 88 332.421875 Z M 88 307 "/>
</clipPath>
<clipPath id="clip11">
  <path d="M 1 307 L 30 307 L 30 332.421875 L 1 332.421875 Z M 1 307 "/>
</clipPath>
</defs>
<g id="surface1">
<path style=" stroke:none;fill-rule:nonzero;fill:rgb(0.799561%,0.799561%,0.799561%);fill-opacity:1;" d="M 156.648438 37.136719 L 156.648438 106.730469 C 149.753906 113.621094 37.335938 225.738281 37.09375 225.945313 C 36.90625 222.632813 36.972656 60.765625 36.972656 53.09375 C 36.972656 43.890625 42.398438 37.136719 53.722656 37.136719 Z M 309.671875 37.136719 C 320.484375 37.136719 326.980469 45.96875 326.980469 53.640625 L 326.980469 225.101563 C 326.980469 226.113281 326.53125 226.300781 325.96875 225.527344 L 206.660156 106.0625 L 206.605469 37.136719 Z M 206.648438 162.941406 L 285.863281 242.582031 L 285.867188 242.585938 L 206.609375 242.585938 C 206.609375 242.585938 206.632813 205.617188 206.648438 162.941406 Z M 78.210938 242.589844 L 156.648438 164.554688 L 156.648438 242.585938 L 78.210938 242.585938 Z M 24.324219 280.050781 L 339.261719 280.050781 C 349.945313 279.917969 364.027344 267.917969 364.027344 256.414063 L 364.027344 28.050781 C 364.027344 12.828125 351.875 0 336.894531 0 L 26.996094 0 C 14.199219 0 0 8.324219 0 26.734375 C 0 39.191406 0.0976563 234.417969 0.0976563 252.710938 C 0.0976563 271.90625 11.890625 280.050781 24.324219 280.050781 "/>
<g clip-path="url(#clip1)" clip-rule="nonzero">
<path style=" stroke:none;fill-rule:nonzero;fill:rgb(0.799561%,0.799561%,0.799561%);fill-opacity:1;" d="M 59.878906 316.277344 L 42.371094 316.347656 L 42.371094 307.496094 L 35.53125 307.496094 L 35.53125 332.039063 L 42.371094 332.039063 L 42.371094 322.105469 L 59.878906 322.121094 L 59.878906 332.039063 L 66.746094 332.039063 L 66.746094 307.496094 L 59.878906 307.496094 L 59.878906 316.277344 "/>
</g>
<g clip-path="url(#clip2)" clip-rule="nonzero">
<path style=" stroke:none;fill-rule:nonzero;fill:rgb(0.799561%,0.799561%,0.799561%);fill-opacity:1;" d="M 73.390625 307.496094 L 73.390625 332.039063 L 80.269531 332.039063 L 80.269531 307.496094 L 73.390625 307.496094 "/>
</g>
<g clip-path="url(#clip3)" clip-rule="nonzero">
<path style=" stroke:none;fill-rule:nonzero;fill:rgb(0.799561%,0.799561%,0.799561%);fill-opacity:1;" d="M 144.785156 316.320313 C 142.433594 315.171875 132.007813 307.398438 132.007813 307.398438 L 122.140625 307.121094 C 122.140625 307.121094 136.925781 317.40625 137.925781 318.847656 L 120.535156 332.269531 L 130.636719 331.867188 C 130.636719 331.867188 142.777344 322.753906 144.78125 322.242188 L 144.78125 332.054688 L 151.246094 331.9375 L 151.246094 307.519531 L 144.78125 307.527344 L 144.78125 316.324219 L 144.785156 316.320313 "/>
</g>
<g clip-path="url(#clip4)" clip-rule="nonzero">
<path style=" stroke:none;fill-rule:nonzero;fill:rgb(0.799561%,0.799561%,0.799561%);fill-opacity:1;" d="M 158.894531 332.125 L 185.203125 332.125 L 185.203125 327.066406 L 165.59375 327.066406 L 165.59375 321.8125 L 176.703125 321.8125 L 176.703125 316.632813 L 165.59375 316.632813 L 165.59375 312.335938 L 185.203125 312.3125 L 185.203125 307.398438 L 158.894531 307.398438 L 158.894531 332.125 "/>
</g>
<g clip-path="url(#clip5)" clip-rule="nonzero">
<path style=" stroke:none;fill-rule:nonzero;fill:rgb(0.799561%,0.799561%,0.799561%);fill-opacity:1;" d="M 216.5 322.644531 L 197.558594 307.707031 L 191.105469 307.707031 L 191.105469 332.265625 L 197.832031 332.265625 L 197.832031 316.625 L 217.867188 332.265625 L 222.402344 332.265625 L 222.402344 307.707031 L 216.5 307.707031 L 216.5 322.644531 "/>
</g>
<g clip-path="url(#clip6)" clip-rule="nonzero">
<path style=" stroke:none;fill-rule:nonzero;fill:rgb(0.799561%,0.799561%,0.799561%);fill-opacity:1;" d="M 229.40625 332.101563 L 236.25 332.101563 L 236.25 323.425781 L 246.578125 323.425781 L 246.578125 318.019531 L 236.25 318.019531 L 236.25 312.507813 L 255.628906 312.507813 L 255.628906 307.535156 L 229.40625 307.535156 L 229.40625 332.101563 "/>
</g>
<g clip-path="url(#clip7)" clip-rule="nonzero">
<path style=" stroke:none;fill-rule:nonzero;fill:rgb(0.799561%,0.799561%,0.799561%);fill-opacity:1;" d="M 335.480469 307.632813 L 335.480469 312.875 L 347.113281 312.875 L 347.113281 332.421875 L 353.582031 332.421875 L 353.582031 312.875 L 365 312.875 L 365 307.632813 L 335.480469 307.632813 "/>
</g>
<g clip-path="url(#clip8)" clip-rule="nonzero">
<path style=" stroke:none;fill-rule:nonzero;fill:rgb(0.799561%,0.799561%,0.799561%);fill-opacity:1;" d="M 324.71875 325.566406 C 324.71875 326.984375 324.230469 327.410156 322.867188 327.410156 L 306.800781 327.410156 C 305.441406 327.410156 304.949219 326.980469 304.949219 325.566406 L 304.949219 314.171875 C 304.949219 312.757813 305.4375 312.328125 306.800781 312.328125 L 322.867188 312.328125 C 324.226563 312.328125 324.71875 312.757813 324.71875 314.171875 Z M 324.320313 307.621094 L 305.132813 307.621094 C 300.296875 307.621094 298.851563 309.777344 298.851563 312.742188 L 298.851563 326.78125 C 298.851563 330.367188 300.820313 332.023438 304.035156 332.023438 L 325.449219 332.023438 C 327.929688 332.023438 330.484375 330.980469 330.484375 327.652344 L 330.484375 312.746094 C 330.484375 309.027344 328.496094 307.625 324.316406 307.625 L 324.320313 307.621094 "/>
</g>
<g clip-path="url(#clip9)" clip-rule="nonzero">
<path style=" stroke:none;fill-rule:nonzero;fill:rgb(0.799561%,0.799561%,0.799561%);fill-opacity:1;" d="M 286.699219 325.566406 C 286.699219 326.984375 286.210938 327.410156 284.847656 327.410156 L 268.78125 327.410156 C 267.421875 327.410156 266.929688 326.980469 266.929688 325.566406 L 266.929688 314.171875 C 266.929688 312.757813 267.421875 312.328125 268.78125 312.328125 L 284.851563 312.328125 C 286.210938 312.328125 286.699219 312.757813 286.699219 314.171875 Z M 286.300781 307.621094 L 267.109375 307.621094 C 262.277344 307.621094 260.832031 309.777344 260.832031 312.742188 L 260.832031 326.78125 C 260.832031 330.367188 262.800781 332.023438 266.019531 332.023438 L 287.429688 332.023438 C 289.910156 332.023438 292.464844 330.980469 292.464844 327.652344 L 292.464844 312.746094 C 292.464844 309.027344 290.480469 307.625 286.304688 307.625 L 286.300781 307.621094 "/>
</g>
<g clip-path="url(#clip10)" clip-rule="nonzero">
<path style=" stroke:none;fill-rule:nonzero;fill:rgb(0.799561%,0.799561%,0.799561%);fill-opacity:1;" d="M 88.28125 312.742188 L 88.28125 326.777344 C 88.28125 330.367188 90.246094 332.023438 93.464844 332.023438 L 116.011719 332.023438 L 116.011719 327.410156 L 96.226563 327.410156 C 94.863281 327.410156 94.375 326.984375 94.375 325.570313 L 94.375 314.175781 C 94.375 312.757813 94.863281 312.332031 96.226563 312.332031 L 116.007813 312.332031 L 116.007813 307.625 L 94.558594 307.625 C 89.722656 307.625 88.28125 309.78125 88.28125 312.746094 L 88.28125 312.742188 "/>
</g>
<g clip-path="url(#clip11)" clip-rule="nonzero">
<path style=" stroke:none;fill-rule:nonzero;fill:rgb(0.799561%,0.799561%,0.799561%);fill-opacity:1;" d="M 1.28125 312.742188 L 1.28125 326.777344 C 1.28125 330.367188 3.25 332.023438 6.46875 332.023438 L 29.015625 332.023438 L 29.015625 327.410156 L 9.230469 327.410156 C 7.871094 327.410156 7.378906 326.984375 7.378906 325.570313 L 7.378906 314.175781 C 7.378906 312.757813 7.871094 312.332031 9.234375 312.332031 L 29.015625 312.332031 L 29.015625 307.625 L 7.5625 307.625 C 2.726563 307.625 1.28125 309.78125 1.28125 312.746094 L 1.28125 312.742188 "/>
</g>
</g>
</svg>
